<svg width="24" height="25" viewBox="0 0 24 25" fill="none" xmlns="http://www.w3.org/2000/svg">
<path d="M17.05 20.78C16.07 21.73 15 21.58 13.97 21.13C12.88 20.67 11.88 20.65 10.73 21.13C9.28998 21.75 8.52998 21.57 7.66998 20.78C2.78998 15.75 3.50998 8.09 9.04998 7.81C10.4 7.88 11.34 8.55 12.13 8.61C13.31 8.37 14.44 7.68 15.7 7.77C17.21 7.89 18.35 8.49 19.1 9.57C15.98 11.44 16.72 15.55 19.58 16.7C19.01 18.2 18.27 19.69 17.04 20.79L17.05 20.78ZM12.03 7.75C11.88 5.52 13.69 3.68 15.77 3.5C16.06 6.08 13.43 8 12.03 7.75Z" fill="white"/>
</svg>
