<svg width="18" height="19" viewBox="0 0 18 19" fill="none" xmlns="http://www.w3.org/2000/svg">
<path d="M5.85 2H12.15C14.55 2 16.5 3.95 16.5 6.35V12.65C16.5 13.8037 16.0417 14.9101 15.2259 15.7259C14.4101 16.5417 13.3037 17 12.15 17H5.85C3.45 17 1.5 15.05 1.5 12.65V6.35C1.5 5.19631 1.9583 4.08987 2.77409 3.27409C3.58987 2.4583 4.69631 2 5.85 2ZM5.7 3.5C4.98392 3.5 4.29716 3.78446 3.79081 4.29081C3.28446 4.79716 3 5.48392 3 6.2V12.8C3 14.2925 4.2075 15.5 5.7 15.5H12.3C13.0161 15.5 13.7028 15.2155 14.2092 14.7092C14.7155 14.2028 15 13.5161 15 12.8V6.2C15 4.7075 13.7925 3.5 12.3 3.5H5.7ZM12.9375 4.625C13.1861 4.625 13.4246 4.72377 13.6004 4.89959C13.7762 5.0754 13.875 5.31386 13.875 5.5625C13.875 5.81114 13.7762 6.0496 13.6004 6.22541C13.4246 6.40123 13.1861 6.5 12.9375 6.5C12.6889 6.5 12.4504 6.40123 12.2746 6.22541C12.0988 6.0496 12 5.81114 12 5.5625C12 5.31386 12.0988 5.0754 12.2746 4.89959C12.4504 4.72377 12.6889 4.625 12.9375 4.625ZM9 5.75C9.99456 5.75 10.9484 6.14509 11.6517 6.84835C12.3549 7.55161 12.75 8.50544 12.75 9.5C12.75 10.4946 12.3549 11.4484 11.6517 12.1517C10.9484 12.8549 9.99456 13.25 9 13.25C8.00544 13.25 7.05161 12.8549 6.34835 12.1517C5.64509 11.4484 5.25 10.4946 5.25 9.5C5.25 8.50544 5.64509 7.55161 6.34835 6.84835C7.05161 6.14509 8.00544 5.75 9 5.75ZM9 7.25C8.40326 7.25 7.83097 7.48705 7.40901 7.90901C6.98705 8.33097 6.75 8.90326 6.75 9.5C6.75 10.0967 6.98705 10.669 7.40901 11.091C7.83097 11.5129 8.40326 11.75 9 11.75C9.59674 11.75 10.169 11.5129 10.591 11.091C11.0129 10.669 11.25 10.0967 11.25 9.5C11.25 8.90326 11.0129 8.33097 10.591 7.90901C10.169 7.48705 9.59674 7.25 9 7.25Z" fill="#7C7C7C"/>
</svg>
