<svg width="18" height="19" viewBox="0 0 18 19" fill="none" xmlns="http://www.w3.org/2000/svg">
<path d="M14.25 2.75C14.6478 2.75 15.0294 2.90804 15.3107 3.18934C15.592 3.47064 15.75 3.85218 15.75 4.25V14.75C15.75 15.1478 15.592 15.5294 15.3107 15.8107C15.0294 16.092 14.6478 16.25 14.25 16.25H3.75C3.35218 16.25 2.97064 16.092 2.68934 15.8107C2.40804 15.5294 2.25 15.1478 2.25 14.75V4.25C2.25 3.85218 2.40804 3.47064 2.68934 3.18934C2.97064 2.90804 3.35218 2.75 3.75 2.75H14.25ZM13.875 14.375V10.4C13.875 9.75155 13.6174 9.12965 13.1589 8.67112C12.7003 8.2126 12.0785 7.955 11.43 7.955C10.7925 7.955 10.05 8.345 9.69 8.93V8.0975H7.5975V14.375H9.69V10.6775C9.69 10.1 10.155 9.6275 10.7325 9.6275C11.011 9.6275 11.278 9.73812 11.475 9.93504C11.6719 10.132 11.7825 10.399 11.7825 10.6775V14.375H13.875ZM5.16 6.92C5.49417 6.92 5.81466 6.78725 6.05095 6.55095C6.28725 6.31466 6.42 5.99417 6.42 5.66C6.42 4.9625 5.8575 4.3925 5.16 4.3925C4.82384 4.3925 4.50144 4.52604 4.26374 4.76374C4.02604 5.00144 3.8925 5.32384 3.8925 5.66C3.8925 6.3575 4.4625 6.92 5.16 6.92ZM6.2025 14.375V8.0975H4.125V14.375H6.2025Z" fill="#7C7C7C"/>
</svg>
