<svg width="24" height="25" viewBox="0 0 24 25" fill="none" xmlns="http://www.w3.org/2000/svg">
<path d="M12.954 12.116L15.911 9.15895L6.36 3.79095C5.727 3.44895 5.134 3.40095 4.614 3.77495L12.954 12.116ZM16.415 15.578L19.489 13.849C20.089 13.513 20.418 13.037 20.418 12.509C20.418 11.982 20.089 11.505 19.49 11.169L16.707 9.60595L13.574 12.738L16.415 15.578ZM4.1 4.50195C4.036 4.69895 4 4.91895 4 5.15995V19.865C4 20.246 4.084 20.5739 4.236 20.8349L12.333 12.737L4.1 4.50195ZM12.954 13.357L4.902 21.41C5.056 21.469 5.222 21.5 5.397 21.5C5.709 21.5 6.034 21.408 6.365 21.224L15.62 16.027L12.954 13.357Z" fill="white"/>
</svg>
